<svg xmlns="http://www.w3.org/2000/svg" width="65" height="65" fill="none" viewBox="0 0 65 65">
  <circle cx="32.5" cy="32.5" r="32.5" fill="#F5F5F5"/>
  <circle cx="32.5" cy="32.5" r="32.5" stroke="#06578C"/>
  <path fill="#06578C" fill-rule="evenodd" d="M32.5 17c-6.584 0-11.921 5.314-11.921 11.868 0 4.078 2.065 7.675 5.21 9.811-7.292 2.66-12.545 9.53-12.788 17.654-.027.894.679 1.64 1.576 1.666a1.623 1.623 0 001.674-1.57c.26-8.71 7.436-15.692 16.249-15.692 8.813 0 15.989 6.982 16.25 15.693A1.623 1.623 0 0050.422 58a1.622 1.622 0 001.576-1.667c-.243-8.123-5.496-14.994-12.788-17.654 3.145-2.136 5.21-5.733 5.21-9.81 0-6.555-5.337-11.869-11.92-11.869zm-8.67 11.868c0-4.767 3.882-8.631 8.67-8.631s8.67 3.864 8.67 8.631c0 4.768-3.882 8.632-8.67 8.632s-8.67-3.864-8.67-8.632z" clip-rule="evenodd"/>
</svg>
